<?xml version="1.0" encoding="UTF-8"?>
<!DOCTYPE svg PUBLIC "-//W3C//DTD SVG 1.1//EN" "http://www.w3.org/Graphics/SVG/1.1/DTD/svg11.dtd">
<!-- Creator: CorelDRAW -->
<svg xmlns="http://www.w3.org/2000/svg" xml:space="preserve" width="51.1145mm" height="51.1146mm" version="1.1" style="shape-rendering:geometricPrecision; text-rendering:geometricPrecision; image-rendering:optimizeQuality; fill-rule:evenodd; clip-rule:evenodd"
viewBox="0 0 91609.12 91609.3"
 xmlns:xlink="http://www.w3.org/1999/xlink"
 xmlns:xodm="http://www.corel.com/coreldraw/odm/2003">
 <defs>
  <style type="text/css">
   <![CDATA[
    .fil0 {fill:#333300}
    .fil1 {fill:#99CC33;fill-rule:nonzero}
   ]]>
  </style>
 </defs>
 <g id="Capa_x0020_1">
  <metadata id="CorelCorpID_0Corel-Layer"/>
  <g id="_1615906586608">
   <circle class="fil0" cx="45804.58" cy="45804.64" r="45804.58"/>
   <path class="fil1" d="M19170.27 57918.71l16355.74 0 0 642.34c0,2302.3 612.76,3906.35 1836.86,4810 1225.53,918.34 3383.02,1370.16 6487.17,1370.16l4271.61 0c2594.26,0 4402.8,-348.95 5437.46,-1049.53 1034.84,-684.45 1559.6,-1923.43 1559.6,-3687.34l0 -2770.08c0,-1501.35 -408.45,-2595.69 -1238.97,-3236.77 -815.65,-656.14 -2682.26,-1166.03 -5583.7,-1501.53l-13833.18 -1501.35c-5146.58,-568.14 -8921.74,-2172.37 -11298.42,-4839.57 -2376.5,-2667.38 -3557.23,-6618.36 -3557.23,-11851.68l0 -3936.1c0,-2959.52 466.52,-5598.4 1414.79,-7930.45 931.96,-2318.25 2303.56,-4228.24 4095.61,-5699.84 1531.28,-1282.34 3396.46,-2200.68 5583.7,-2725.45 2187.06,-524.95 5465.95,-787.33 9810.51,-787.33l10218.96 0c6355.98,0 11210.42,1282.34 14563.69,3848.28 3367.97,2565.94 5043.88,6267.98 5043.88,11122.42l0 4359.61 -16355.92 0 0 -685.89c0,-1909.8 -453.08,-3236.77 -1341.67,-3979.3 -903.64,-743.96 -2521.31,-1107.78 -4854.62,-1107.78l-3936.1 0c-2710.57,0 -4562.31,320.45 -5583.52,961.71 -1005.08,641.08 -1514.97,1748.86 -1514.97,3308.46l0 2653.76c0,2331.88 2288.68,3761.72 6880.74,4271.61l0 0 12594.2 1413.53c5452.33,627.64 9504.75,2201.94 12187.01,4753 2682.26,2551.07 4024.1,6136.79 4024.1,10743.9l0 6107.04c0,5262.89 -1632.72,9476.43 -4912.69,12640.09 -3280.15,3162.4 -7682.95,4751.75 -13208.4,4751.75l-13891.24 0c-7420.38,0 -12829.52,-1282.34 -16196.24,-3848.1 -3367.97,-2565.94 -5058.76,-6648.11 -5058.76,-12231.81l0 -4387.75z"/>
  </g>
 </g>
</svg>
